<?xml version="1.0" encoding="UTF-8"?>
<svg width="547px" height="424px" viewBox="0 0 547 424" version="1.1" xmlns="http://www.w3.org/2000/svg" xmlns:xlink="http://www.w3.org/1999/xlink">
    <!-- Generator: Sketch 63.1 (92452) - https://sketch.com -->
    <title>Slice 1</title>
    <desc>Created with Sketch.</desc>
    <g id="Page-1" stroke="none" stroke-width="1" fill="none" fill-rule="evenodd">
        <g id="logo" transform="translate(273.190254, 211.852152) rotate(-96.000000) translate(-273.190254, -211.852152) translate(87.190254, -43.147848)" fill-rule="nonzero">
            <path d="M302.91,367.752 L315.401,358.391 C326.597,350.001 327.762,333.639 317.87,323.745 C310.577,316.452 299.321,314.91 290.336,319.972 L287.997,321.29 L286.77,321.29 C278.808,321.29 272.084,315.378 271.065,307.482 C270.52,303.254 271.698,298.99 274.34,295.644 C286.566,280.168 323.404,233.537 350.259,199.592 C367.464,177.844 365.649,146.664 345.85,126.866 L344.928,125.944 C343.056,124.072 341.075,122.378 339.014,120.844 C332.093,123.606 325.637,127.863 320.166,133.636 L282.092,173.822 C282.092,173.822 283.968,139.777 293.977,117.227 C294.809,115.354 295.662,113.431 296.525,111.487 C286.27,113.609 276.53,118.773 268.764,126.969 L230.69,167.154 L227.397,211.286 L227.397,182.175 C227.397,157.503 232.567,133.109 242.576,110.559 C246.992,100.611 251.915,89.522 256.688,78.767 C266.302,57.114 259.361,32.661 241.927,18.858 C231.067,23.599 221.872,32.155 216.499,43.591 L203.279,71.732 C183.906,112.964 177.208,159.019 184.032,204.062 C187.804,228.959 191.583,253.864 193.42,265.867 C194.07,270.113 191.491,274.181 187.346,275.425 L187.177,275.476 C183.654,276.533 179.853,275.161 177.818,272.096 L169.37,259.375 C163.32,250.264 158.792,240.232 155.965,229.667 C154.021,222.404 151.618,213.427 149.205,204.41 C146.268,193.435 139.446,184.534 130.591,178.795 C131.02,185.005 131.693,191.21 132.631,197.396 C136.402,222.293 140.181,247.198 142.019,259.201 C142.669,263.447 140.09,267.515 135.945,268.759 L135.776,268.81 C132.253,269.867 128.452,268.495 126.417,265.43 L117.969,252.709 C111.919,243.598 107.391,233.566 104.564,223.001 C102.62,215.737 100.217,206.76 97.804,197.744 C95.571,189.4 91.086,182.263 85.176,176.794 C66.764,186.263 57.281,208.087 64.146,228.589 L83.306,285.813 C96.077,323.956 120.304,357.231 152.682,381.099 L172.486,395.698 C194.001,411.558 209.597,434.154 216.797,459.894 L218.724,466.782 C222.314,479.617 230.256,490.157 240.562,497.172 L258.813,493.966 C291.682,488.193 311.71,454.525 301.096,422.885 L293.13,399.14 C289.279,387.666 293.221,375.012 302.91,367.752 Z" id="Path" fill="#C4885E"></path>
            <path d="M358.102,205.797 C378.454,180.073 376.226,143.102 352.922,119.797 L352,118.875 C339.845,106.719 323.695,100.174 306.495,100.385 C289.307,100.617 273.329,107.617 261.507,120.095 L242.866,139.769 C245.124,131.214 248.077,122.822 251.718,114.621 L265.829,82.83 C272.771,67.194 272.739,49.272 265.742,33.661 C258.744,18.049 247.317,8.37608863 231.024,3.15108863 C202.24,-6.07691137 168.904,5.315 156.048,32.678 L142.825,60.82 C122.542,103.991 115.597,151.738 122.743,198.899 C125.954,220.098 129.171,241.303 131.19,254.548 L126.297,247.182 C120.836,238.957 116.773,229.954 114.221,220.418 L107.46,195.162 C99.78,166.462 70.046,149.25 41.179,156.788 L40.077,157.075 C25.945,160.767 13.852,170.251 6.9,183.095 C-0.052,195.94 -1.38,211.25 3.257,225.1 L7.06,236.457 C12.293,252.206447 11.2012018,244.296124 18.684708,263.076089 C23.917708,276.208376 30.4242316,294.544634 41.179,316.674 C51.130296,337.150115 79.324,370.671 95.345,382.481 L115.149,397.081 C134.773,411.546 149.198,432.444 155.764,455.923 L157.691,462.81 C165.628,491.185 191.183,509.995 219.682,509.995 C223.423,509.995 227.215,509.671 231.024,509.002 L260.542,503.817 C279.08,500.56 295.232,489.416 304.854,473.239 C314.476,457.062 316.562,437.551 310.576,419.706 L302.61,395.961 C300.127,388.558 302.657,380.438 308.907,375.753 L321.396,366.393 C329.055,360.655 333.836,351.889 334.517,342.344 C335.198,332.797 331.707,323.442 324.939,316.674 C314.56,306.296 298.406,304.044 285.589,311.169 C283.198,310.674 281.304,308.703 280.982,306.201 C280.779,304.63 281.207,303.082 282.187,301.842 C294.412,286.368 331.249,239.74 358.102,205.797 Z M306.765,120.381 C306.966,120.379 307.165,120.377 307.366,120.377 C318.887,120.377 329.695,124.853 337.859,133.016 L338.781,133.938 C354.909,150.065 356.472,175.624 342.418,193.389 C338.737,198.042 334.864,202.938 330.897,207.954 C323.383,176.586 299.152,151.255 267.664,142.674 L276.025,133.849 C284.103,125.323 295.02,120.54 306.765,120.381 Z M233.438,106.506 C224.445,126.763 219.214,148.081 217.803,170.029 C189.846,163.993 161.044,173.679 142.296,194.34 C138.319,166.778 139.584,139.022 145.915,112.295 C146.012,112.17 146.118,112.056 146.209,111.925 C157.295,96.014 173.896,85.373 192.955,81.966 C209.536,79.002 226.264,81.822 240.809,89.901 L233.438,106.506 Z M174.099,42.1836803 C182.695,23.8906803 203.69,14.7466803 222.938,20.9196803 C233.833,24.4126803 242.763,32.4036803 247.442,42.8416803 C251.645,52.2196803 252.076,62.8396803 248.758,72.4826803 C230.601,62.8796803 209.906,59.6156803 189.385,63.2826803 C178.51,65.2266803 168.27,69.0286803 159,74.4376803 C159.612,73.0626803 160.236,71.6906803 160.877,70.3256803 L174.099,42.1836803 Z M24.491,192.615 C28.881,184.505 36.212,178.756 45.135,176.425 L46.237,176.138 C49.149,175.377 52.073,175.014 54.955,175.014 C70.138,175.014 84.071,185.111 88.144,200.332 L90.566,209.381 C65.469,211.072 43.473,225.527 31.559,246.625 L22.226,218.751 C19.297,210.006 20.101,200.723 24.491,192.615 Z M287.666,463.015 C281.023,474.18 269.877,481.871 257.082,484.118 L227.564,489.303 C204.908,493.284 183.147,479.577 176.949,457.422 L176.942,457.398 C185.855,436.847 201.934,420.685 222.544,411.709 C242.775,402.897 265.107,401.979 285.895,409.019 L291.614,426.067 C295.747,438.383 294.307,451.851 287.666,463.015 Z M286.77,332.768198 L287.998,332.768198 C289.718,332.768198 291.407,332.331702 292.905,331.500092 L295.246,330.201441 C300.302,327.395251 306.698,328.259377 310.8,332.302142 C313.503,334.965461 314.843,338.501772 314.571,342.258796 C314.3,346.015819 312.465,349.328463 309.405,351.5878 L296.915,360.811376 C287.981,367.409075 282.661,377.29183 281.795,387.765776 C238.254,377.951008 192.972,395.851307 168.201,431.914 C159.062,412.116961 144.871,394.702425 127.018,381.734635 L124.546,379.939383 C131.194,357.04647 143.886,336.493691 161.479,320.242817 C165.508,316.521266 165.713,310.286164 161.936,306.316312 C158.158,302.344489 151.829,302.143484 147.802,305.866021 C129.357,322.90318 115.613,344.049121 107.533,367.580521 L107.214,367.348971 C77.07,345.454187 54.669,315.580286 42.287,280.828068 C44.412,253.171135 68.047,231.971987 95.952,232.174963 C99.084,242.322768 103.673,251.93653 109.641,260.795537 L118.089,273.327816 C122.591,280.011238 130.853,282.94946 138.656,280.645784 L138.818,280.596518 C147.673,277.980494 153.298,269.234799 151.904,260.251641 C150.772,252.961262 148.901,240.837891 146.749,226.866061 C158.677,199.960928 189.084,186.085659 217.399,194.075614 L217.399,214.530847 C217.399,219.971781 221.877,224.384042 227.399,224.384042 C232.921,224.384042 237.399,219.971781 237.399,214.530847 L237.399,185.848197 C237.399,183.288337 237.459,180.736359 237.577,178.19325 C237.705,178.074026 237.83,177.949876 237.952,177.82277 L251.326,163.914 C287.056,167.545888 314.119,197.776474 313.303,233.172106 C303.28,245.664972 293.453,257.91939 285.138,268.288892 C263.659,263.723907 241.95,263.712083 220.545,268.26623 C215.147,269.414127 211.715,274.657012 212.881,279.976752 C214.046,285.295506 219.367,288.683034 224.766,287.52824 C240.099,284.266833 255.62,283.713083 271.067,285.839402 C269.309,288.032724 267.763,289.960009 266.496,291.541446 C262.213,296.882863 260.265,303.819512 261.149,310.572892 C262.805,323.224394 273.819,332.768198 286.77,332.768198 Z" id="Shape" fill="#000000"></path>
        </g>
    </g>
</svg>