<?xml version="1.0" encoding="iso-8859-1"?>
<!-- Generator: Adobe Illustrator 19.0.0, SVG Export Plug-In . SVG Version: 6.00 Build 0)  -->
<svg version="1.1" id="Capa_1" xmlns="http://www.w3.org/2000/svg" xmlns:xlink="http://www.w3.org/1999/xlink" x="0px" y="0px"
	 viewBox="0 0 512 512" style="enable-background:new 0 0 512 512;" xml:space="preserve">
<path style="fill:#c4885e;" d="M168.509,279.103c-13.27-28.306-42.006-47.917-75.335-47.917C47.238,231.185,10,268.423,10,314.36
	c0,21.686,8.303,41.43,21.899,56.235L168.509,279.103z"/>
<path style="fill:#FFFFFF;" d="M165.797,280.791c-13.552-15.21-33.281-24.8-55.256-24.8c-40.867,0-73.997,33.13-73.997,73.997
	c0,11.125,2.471,21.667,6.869,31.133c11.438-15.196,28.164-26.186,47.445-30.232C104.451,302.545,132.706,282.571,165.797,280.791z"
	/>
<path style="fill:#c4885e;" d="M174.948,366.407c6.095-10.755,9.591-23.175,9.591-36.419c0-18.892-7.09-36.121-18.741-49.197
	c-33.092,1.779-61.346,21.753-74.939,50.098c5.327-1.118,10.848-1.708,16.507-1.708C135.809,329.182,160.766,344.04,174.948,366.407
	z"/>
<path style="fill:#c4885e;" d="M179.82,375.265c0.001,0.001,0.002,0.002,0.003,0.003c-12.763-27.224-40.401-46.087-72.457-46.087
	c-44.181,0-79.997,35.816-79.997,79.997c0,34.578,21.939,64.027,52.656,75.198c12.907,10.972,29.618,17.605,47.886,17.605
	c40.867,0,73.997-33.13,73.997-73.997C201.908,407.345,193.449,388.687,179.82,375.265z"/>
<path style="fill:#c4885e;" d="M442.91,369.752l12.491-9.361c11.196-8.39,12.361-24.752,2.469-34.646
	c-7.293-7.293-18.549-8.835-27.534-3.773l-2.339,1.318h-1.227c-7.962,0-14.686-5.912-15.705-13.808
	c-0.545-4.228,0.633-8.492,3.275-11.838c12.226-15.476,49.064-62.107,75.919-96.052c17.205-21.748,15.39-52.928-4.409-72.726
	l-0.922-0.922c-1.872-1.872-3.853-3.566-5.914-5.1c-6.921,2.762-13.377,7.019-18.848,12.792l-38.074,40.186
	c0,0,1.876-34.045,11.885-56.595c0.832-1.873,1.685-3.796,2.548-5.74c-10.255,2.122-19.995,7.286-27.761,15.482l-38.074,40.185
	l-3.293,44.132v-29.111c0-24.672,5.17-49.066,15.179-71.616c4.416-9.948,9.339-21.037,14.112-31.792
	c9.614-21.653,2.673-46.106-14.761-59.909c-10.86,4.741-20.055,13.297-25.428,24.733l-13.22,28.141
	c-19.373,41.232-26.071,87.287-19.247,132.33c3.772,24.897,7.551,49.802,9.388,61.805c0.65,4.246-1.929,8.314-6.074,9.558
	l-0.169,0.051c-3.523,1.057-7.324-0.315-9.359-3.38l-8.448-12.721c-6.05-9.111-10.578-19.143-13.405-29.708
	c-1.944-7.263-4.347-16.24-6.76-25.257c-2.937-10.975-9.759-19.876-18.614-25.615c0.429,6.21,1.102,12.415,2.04,18.601
	c3.771,24.897,7.55,49.802,9.388,61.805c0.65,4.246-1.929,8.314-6.074,9.558l-0.169,0.051c-3.523,1.057-7.324-0.315-9.359-3.38
	l-8.448-12.721c-6.05-9.111-10.578-19.143-13.405-29.708c-1.944-7.264-4.347-16.241-6.76-25.257
	c-2.233-8.344-6.718-15.481-12.628-20.95c-18.412,9.469-27.895,31.293-21.03,51.795l19.16,57.224
	c12.771,38.143,36.998,71.418,69.376,95.286l19.804,14.599c21.515,15.86,37.111,38.456,44.311,64.196l1.927,6.888
	c3.59,12.835,11.532,23.375,21.838,30.39l18.251-3.206c32.869-5.773,52.897-39.441,42.283-71.081l-7.966-23.745
	C429.279,389.666,433.221,377.012,442.91,369.752z"/>
<path style="fill:#FFFFFF;" d="M110.541,427.985c0-30.836,18.867-57.258,45.683-68.374c-8.723-3.616-18.283-5.623-28.314-5.623
	c-40.867,0-73.997,33.13-73.997,73.997s33.13,73.997,73.997,73.997c10.031,0,19.591-2.006,28.314-5.622
	C129.409,485.243,110.541,458.822,110.541,427.985z"/>
<path style="fill:#c4885e;" d="M201.908,427.985c0-30.836-18.867-57.258-45.683-68.374c-26.816,11.118-45.683,37.538-45.683,68.374
	c0,30.837,18.867,57.258,45.683,68.375C183.04,485.243,201.908,458.822,201.908,427.985z"/>
<path d="M498.102,207.797c20.352-25.724,18.124-62.695-5.18-86L492,120.875c-12.155-12.156-28.305-18.701-45.505-18.49
	c-17.188,0.232-33.166,7.232-44.988,19.71l-18.641,19.674c2.258-8.555,5.211-16.947,8.852-25.148l14.111-31.791
	c6.942-15.636,6.91-33.558-0.087-49.169c-6.998-15.612-20.354-27.562-36.647-32.787c-28.784-9.228-60.191,4.441-73.047,31.804
	L282.825,62.82c-20.283,43.171-27.228,90.918-20.082,138.079c3.211,21.199,6.428,42.404,8.447,55.649l-4.893-7.366
	c-5.461-8.225-9.524-17.228-12.076-26.764l-6.761-25.256c-7.68-28.7-37.414-45.912-66.281-38.374l-1.102,0.287
	c-14.132,3.692-26.225,13.176-33.177,26.02c-6.952,12.845-8.28,28.155-3.643,42.005l3.803,11.357
	c-15.495-10.991-34.264-17.27-53.89-17.27C41.798,221.185,0,262.984,0,314.36c0,22.921,8.38,44.846,23.594,61.926
	c-4.017,10.194-6.225,21.29-6.225,32.893c0,37.131,23.085,70.644,57.613,83.968c14.457,11.766,32.88,18.835,52.929,18.835
	c5.56,0,11.123-0.548,16.534-1.629c5.416-1.082,8.929-6.35,7.848-11.766c-1.083-5.416-6.349-8.924-11.766-7.848
	c-4.125,0.824-8.37,1.242-12.616,1.242c-35.289,0-63.997-28.709-63.997-63.997s28.709-63.997,63.997-63.997
	s63.997,28.709,63.997,63.997c0,5.67-0.74,11.29-2.199,16.701c-1.438,5.333,1.72,10.821,7.053,12.259
	c5.332,1.44,10.821-1.72,12.257-7.053c1.917-7.109,2.889-14.479,2.889-21.907c0-22.709-9.074-43.328-23.768-58.462
	c-0.568-1.156-1.158-2.297-1.772-3.422c3.45-7.24,5.846-14.947,7.112-22.859c11.796,15.554,25.844,29.43,41.865,41.24l19.804,14.6
	c19.624,14.465,34.049,35.363,40.615,58.842l1.927,6.887c7.937,28.375,33.492,47.185,61.991,47.185
	c3.741,0,7.533-0.324,11.342-0.993l29.518-5.185c18.538-3.257,34.69-14.401,44.312-30.578s11.708-35.688,5.722-53.533l-7.966-23.745
	c-2.483-7.403,0.047-15.523,6.297-20.208l12.489-9.36c7.659-5.738,12.44-14.504,13.121-24.049c0.681-9.547-2.81-18.902-9.578-25.67
	c-10.379-10.378-26.533-12.63-39.35-5.505c-2.391-0.495-4.285-2.466-4.607-4.968c-0.203-1.571,0.225-3.119,1.205-4.359
	C434.412,288.368,471.249,241.74,498.102,207.797z M446.765,122.381c0.201-0.002,0.4-0.004,0.601-0.004
	c11.521,0,22.329,4.476,30.493,12.639l0.922,0.922c16.128,16.127,17.691,41.686,3.637,59.451
	c-3.681,4.653-7.554,9.549-11.521,14.565c-7.514-31.368-31.745-56.699-63.233-65.28l8.361-8.825
	C424.103,127.323,435.02,122.54,446.765,122.381z M373.438,108.506c-8.993,20.257-14.224,41.575-15.635,63.523
	c-27.957-6.036-56.759,3.65-75.507,24.311c-3.977-27.562-2.712-55.318,3.619-82.045c0.097-0.125,0.203-0.239,0.294-0.37
	c11.086-15.911,27.687-26.552,46.746-29.959c16.581-2.964,33.309-0.144,47.854,7.935L373.438,108.506z M314.149,43.182
	c8.596-18.293,29.591-27.437,48.839-21.264c10.895,3.493,19.825,11.484,24.504,21.922c4.203,9.378,4.634,19.998,1.316,29.641
	c-18.157-9.603-38.852-12.867-59.373-9.2c-10.875,1.944-21.115,5.746-30.385,11.155c0.612-1.375,1.236-2.747,1.877-4.112
	L314.149,43.182z M164.491,194.615c4.39-8.11,11.721-13.859,20.644-16.19l1.102-0.287c2.912-0.761,5.836-1.124,8.718-1.124
	c15.183,0,29.116,10.097,33.189,25.318l2.422,9.049c-25.097,1.691-47.093,16.146-59.007,37.244l-9.333-27.874
	C159.297,212.006,160.101,202.723,164.491,194.615z M93.174,241.185c9.609,0,18.957,1.918,27.585,5.451
	c-3.352-0.409-6.757-0.644-10.218-0.644c-46.315,0-83.997,37.681-83.997,83.997c0,6.472,0.754,12.835,2.201,19.046
	c-5.697-10.566-8.747-22.437-8.747-34.675C19.999,274.011,52.825,241.185,93.174,241.185z M43.914,427.985
	c0,4.287,0.327,8.499,0.949,12.615c-4.82-9.564-7.495-20.282-7.495-31.422c0-38.596,31.401-69.997,69.997-69.997
	c8.981,0,17.721,1.757,25.816,4.99c-1.745-0.109-3.5-0.182-5.271-0.182C81.596,343.988,43.914,381.67,43.914,427.985z
	 M107.366,319.181c-22.887,0-43.801,8.593-59.7,22.715c-0.737-3.901-1.122-7.877-1.122-11.908c0-35.289,28.709-63.997,63.997-63.997
	s63.997,28.709,63.997,63.997c0,5.729-0.781,11.419-2.285,16.907C155.525,329.537,132.149,319.181,107.366,319.181z
	 M427.666,465.015c-6.643,11.165-17.789,18.856-30.584,21.103l-29.518,5.185c-22.656,3.981-44.417-9.726-50.615-31.881l-0.007-0.024
	c8.913-20.551,24.992-36.713,45.602-45.689c20.231-8.812,42.563-9.73,63.351-2.69l5.719,17.048
	C435.747,440.383,434.307,453.851,427.666,465.015z M426.77,333.291h1.228c1.72,0,3.409-0.443,4.907-1.287l2.341-1.318
	c5.056-2.848,11.452-1.971,15.554,2.132c2.703,2.703,4.043,6.292,3.771,10.105c-0.271,3.813-2.106,7.175-5.166,9.468l-12.49,9.361
	c-8.934,6.696-14.254,16.726-15.12,27.356c-43.541-9.961-88.823,8.206-113.594,44.806c-9.139-20.092-23.33-37.766-41.183-50.927
	l-2.472-1.822c6.648-23.234,19.34-44.093,36.933-60.586c4.029-3.777,4.234-10.105,0.457-14.134
	c-3.778-4.031-10.107-4.235-14.134-0.457c-18.445,17.291-32.189,38.752-40.269,62.634l-0.319-0.235
	c-30.144-22.221-52.545-52.54-64.927-87.81c2.125-28.069,25.76-49.584,53.665-49.378c3.132,10.299,7.721,20.056,13.689,29.047
	l8.448,12.719c4.502,6.783,12.764,9.765,20.567,7.427l0.162-0.05c8.855-2.655,14.48-11.531,13.086-20.648
	c-1.132-7.399-3.003-19.703-5.155-33.883c11.928-27.306,42.335-41.388,70.65-33.279v20.76c0,5.522,4.478,10,10,10
	c5.522,0,10-4.478,10-10v-29.11c0-2.598,0.06-5.188,0.178-7.769c0.128-0.121,0.253-0.247,0.375-0.376l13.374-14.116
	c35.73,3.686,62.793,34.367,61.977,70.29c-10.023,12.679-19.85,25.116-28.165,35.64c-21.479-4.633-43.188-4.645-64.593-0.023
	c-5.398,1.165-8.83,6.486-7.664,11.885c1.165,5.398,6.486,8.836,11.885,7.664c15.333-3.31,30.854-3.872,46.301-1.714
	c-1.758,2.226-3.304,4.182-4.571,5.787c-4.283,5.421-6.231,12.461-5.347,19.315C402.805,323.605,413.819,333.291,426.77,333.291z"/>
<path d="M322.8,281.333l-0.299,0.153c-4.92,2.509-6.875,8.53-4.367,13.45c1.767,3.466,5.277,5.46,8.917,5.46
	c1.528,0,3.079-0.352,4.534-1.093l0.299-0.153c4.92-2.509,6.875-8.53,4.367-13.45C333.742,280.778,327.72,278.827,322.8,281.333z"/>
<path d="M171.234,475.089c-4.082,3.719-4.376,10.044-0.656,14.126c1.973,2.165,4.679,3.265,7.395,3.265
	c2.403,0,4.815-0.861,6.732-2.608l0.219-0.202c4.037-3.769,4.234-10.076,0.466-14.113
	C181.622,471.52,175.273,471.322,171.234,475.089z"/>
</svg>
